<svg width="1600" height="980" viewBox="0 0 1600 980" fill="none" xmlns="http://www.w3.org/2000/svg">
  <defs>
    <linearGradient id="bg" x1="160" y1="70" x2="1460" y2="900" gradientUnits="userSpaceOnUse">
      <stop stop-color="#171717"/>
      <stop offset="1" stop-color="#0C0C0C"/>
    </linearGradient>
    <linearGradient id="panel" x1="0" y1="0" x2="0" y2="980" gradientUnits="userSpaceOnUse">
      <stop stop-color="#171717"/>
      <stop offset="1" stop-color="#111111"/>
    </linearGradient>
    <linearGradient id="refGrad" x1="170" y1="458" x2="408" y2="562" gradientUnits="userSpaceOnUse">
      <stop stop-color="#4E6F57"/>
      <stop offset="1" stop-color="#D7C197"/>
    </linearGradient>
    <linearGradient id="outputGrad" x1="660" y1="182" x2="1168" y2="728" gradientUnits="userSpaceOnUse">
      <stop stop-color="#31453C"/>
      <stop offset="0.5" stop-color="#B08D58"/>
      <stop offset="1" stop-color="#E1C9A7"/>
    </linearGradient>
    <linearGradient id="leafGlow" x1="790" y1="194" x2="1076" y2="604" gradientUnits="userSpaceOnUse">
      <stop stop-color="#EBDBAF" stop-opacity="0.85"/>
      <stop offset="1" stop-color="#EBDBAF" stop-opacity="0"/>
    </linearGradient>
    <filter id="shadow" x="82" y="32" width="1436" height="916" filterUnits="userSpaceOnUse" color-interpolation-filters="sRGB">
      <feFlood flood-opacity="0" result="BackgroundImageFix"/>
      <feColorMatrix in="SourceAlpha" type="matrix" values="0 0 0 0 0 0 0 0 0 0 0 0 0 0 0 0 0 0 127 0" result="hardAlpha"/>
      <feOffset dy="18"/>
      <feGaussianBlur stdDeviation="24"/>
      <feColorMatrix type="matrix" values="0 0 0 0 0 0 0 0 0 0 0 0 0 0 0 0 0 0 0.45 0"/>
      <feBlend mode="normal" in2="BackgroundImageFix" result="effect1_dropShadow_1_1"/>
      <feBlend mode="normal" in="SourceGraphic" in2="effect1_dropShadow_1_1" result="shape"/>
    </filter>
    <clipPath id="screenClip">
      <rect x="130" y="80" width="1340" height="820" rx="28"/>
    </clipPath>
    <clipPath id="canvasClip">
      <rect x="664" y="166" width="512" height="560" rx="18"/>
    </clipPath>
    <clipPath id="refClip">
      <rect x="176" y="453" width="36" height="36" rx="8"/>
    </clipPath>
  </defs>

  <rect width="1600" height="980" fill="#0B0B0B"/>
  <rect x="70" y="40" width="1460" height="900" rx="36" fill="url(#bg)"/>

  <g filter="url(#shadow)" clip-path="url(#screenClip)">
    <rect x="130" y="80" width="1340" height="820" rx="28" fill="#101010"/>
    <rect x="130" y="80" width="320" height="820" fill="url(#panel)"/>
    <rect x="458" y="80" width="8" height="820" fill="#2F2F2F"/>
    <rect x="466" y="80" width="676" height="820" fill="#0F0F0F"/>
    <rect x="1142" y="80" width="8" height="820" fill="#2F2F2F"/>
    <rect x="1150" y="80" width="320" height="820" fill="url(#panel)"/>

    <text x="160" y="126" fill="#F3F3F3" font-size="22" font-family="Inter, Arial, sans-serif" font-weight="700">Iris Studio</text>
    <text x="160" y="150" fill="#8E8E8E" font-size="12" font-family="Inter, Arial, sans-serif">Image-to-image editing with local history</text>

    <text x="160" y="195" fill="#7F7F7F" font-size="11" font-family="Inter, Arial, sans-serif" letter-spacing="1.8">MODE</text>
    <rect x="160" y="210" width="82" height="34" rx="10" fill="#232323"/>
    <rect x="247" y="210" width="82" height="34" rx="10" fill="#4D79FF"/>
    <rect x="334" y="210" width="82" height="34" rx="10" fill="#232323"/>
    <text x="188" y="231" fill="#C9C9C9" font-size="12" font-family="Inter, Arial, sans-serif">Text</text>
    <text x="274" y="231" fill="#FFFFFF" font-size="12" font-family="Inter, Arial, sans-serif" font-weight="600">Image</text>
    <text x="360" y="231" fill="#C9C9C9" font-size="12" font-family="Inter, Arial, sans-serif">Multi</text>

    <text x="160" y="284" fill="#7F7F7F" font-size="11" font-family="Inter, Arial, sans-serif" letter-spacing="1.8">PROMPT</text>
    <rect x="160" y="298" width="258" height="112" rx="14" fill="#141414" stroke="#2D2D2D"/>
    <text x="178" y="330" fill="#F0F0F0" font-size="16" font-family="Inter, Arial, sans-serif" font-weight="600">botanical reading nook,</text>
    <text x="178" y="354" fill="#F0F0F0" font-size="16" font-family="Inter, Arial, sans-serif" font-weight="600">lacquered walnut, warm skylight,</text>
    <text x="178" y="378" fill="#F0F0F0" font-size="16" font-family="Inter, Arial, sans-serif" font-weight="600">luxury editorial interior</text>

    <text x="160" y="438" fill="#7F7F7F" font-size="11" font-family="Inter, Arial, sans-serif" letter-spacing="1.8">REFERENCE IMAGE</text>
    <rect x="160" y="450" width="258" height="54" rx="14" fill="#1B1B1B" stroke="#2D2D2D"/>
    <g clip-path="url(#refClip)">
      <rect x="176" y="453" width="36" height="36" fill="url(#refGrad)"/>
      <rect x="176" y="472" width="36" height="17" fill="#3F3326" opacity="0.8"/>
      <circle cx="196" cy="468" r="8" fill="#BAC997"/>
    </g>
    <text x="224" y="472" fill="#EFEFEF" font-size="12" font-family="Inter, Arial, sans-serif">atrium_ref…</text>
    <text x="224" y="490" fill="#9A9A9A" font-size="11" font-family="Inter, Arial, sans-serif">1344×1024</text>
    <text x="390" y="482" fill="#9A9A9A" font-size="14" font-family="Inter, Arial, sans-serif">×</text>

    <text x="160" y="544" fill="#7F7F7F" font-size="11" font-family="Inter, Arial, sans-serif" letter-spacing="1.8">OUTPUT SCALE</text>
    <rect x="160" y="560" width="188" height="8" rx="4" fill="#2A2A2A"/>
    <rect x="160" y="560" width="150" height="8" rx="4" fill="#4D79FF"/>
    <circle cx="310" cy="564" r="10" fill="#E6EFFF"/>
    <text x="368" y="570" fill="#EDEDED" font-size="15" font-family="JetBrains Mono, monospace">80%</text>
    <text x="160" y="596" fill="#9A9A9A" font-size="12" font-family="Inter, Arial, sans-serif">Output: 896 × 672 (from 1344×1024)</text>

    <text x="160" y="644" fill="#7F7F7F" font-size="11" font-family="Inter, Arial, sans-serif" letter-spacing="1.8">SEED</text>
    <rect x="160" y="658" width="258" height="40" rx="12" fill="#141414" stroke="#2D2D2D"/>
    <text x="178" y="683" fill="#F0F0F0" font-size="14" font-family="JetBrains Mono, monospace">9043312</text>

    <rect x="160" y="744" width="258" height="70" rx="14" fill="#171717" stroke="#2D2D2D"/>
    <text x="178" y="770" fill="#BDBDBD" font-size="12" font-family="Inter, Arial, sans-serif">Est. generation</text>
    <text x="384" y="770" fill="#F0F0F0" font-size="12" font-family="JetBrains Mono, monospace" text-anchor="end">00:22</text>
    <text x="178" y="794" fill="#BDBDBD" font-size="12" font-family="Inter, Arial, sans-serif">Est. total incl. queue</text>
    <text x="384" y="794" fill="#F0F0F0" font-size="12" font-family="JetBrains Mono, monospace" text-anchor="end">00:22</text>

    <rect x="160" y="827" width="258" height="44" rx="14" fill="#4D79FF"/>
    <text x="236" y="854" fill="#FFFFFF" font-size="15" font-family="Inter, Arial, sans-serif" font-weight="700">Generate</text>
    <text x="332" y="854" fill="#D7E2FF" font-size="12" font-family="Inter, Arial, sans-serif">⌘↵</text>

    <rect x="466" y="80" width="676" height="46" fill="#101010"/>
    <rect x="466" y="126" width="676" height="1" fill="#262626"/>
    <circle cx="488" cy="103" r="5" fill="#39D07E"/>
    <text x="504" y="108" fill="#BDBDBD" font-size="12" font-family="Inter, Arial, sans-serif">Done</text>
    <text x="890" y="108" fill="#BDBDBD" font-size="12" font-family="JetBrains Mono, monospace">Seed: 9043312</text>
    <text x="1048" y="108" fill="#BDBDBD" font-size="12" font-family="Inter, Arial, sans-serif">21.4s</text>

    <rect x="572" y="154" width="464" height="584" rx="28" fill="#141414" stroke="#2B2B2B"/>
    <g clip-path="url(#canvasClip)">
      <g transform="translate(-104 0)">
        <rect width="512" height="560" fill="url(#outputGrad)"/>
      </g>
      <rect x="664" y="640" width="512" height="86" fill="#1A201C" opacity="0.28"/>
      <circle cx="934" cy="274" r="132" fill="url(#leafGlow)"/>
      <rect x="824" y="400" width="170" height="212" rx="16" fill="#503D2A"/>
      <rect x="844" y="420" width="132" height="132" rx="12" fill="#E4D4B9"/>
      <path d="M754 644C786 560 826 498 872 460C914 426 950 414 980 424C1028 442 1060 492 1076 578C1028 588 992 604 958 624C908 654 852 670 790 672L754 644Z" fill="#273A31"/>
      <path d="M758 448C792 366 850 320 932 312C1018 320 1076 366 1100 448C1060 430 1028 430 998 448C970 404 934 382 888 380C840 380 798 402 758 448Z" fill="#304A40"/>
      <path d="M716 498C752 472 786 470 818 494C800 530 796 564 804 596C760 590 732 558 716 498Z" fill="#6A8A5A"/>
      <path d="M1108 494C1072 472 1038 470 1006 494C1024 530 1028 564 1020 596C1064 590 1092 558 1108 494Z" fill="#6A8A5A"/>
      <path d="M914 186C944 222 966 276 980 350" stroke="#D4E2A6" stroke-width="10" stroke-linecap="round"/>
      <path d="M898 210C858 238 832 278 822 330" stroke="#D4E2A6" stroke-width="8" stroke-linecap="round"/>
      <path d="M980 216C1022 250 1048 286 1058 336" stroke="#D4E2A6" stroke-width="8" stroke-linecap="round"/>
      <ellipse cx="914" cy="614" rx="104" ry="26" fill="#111111" opacity="0.18"/>
    </g>

    <rect x="466" y="840" width="676" height="60" fill="#101010"/>
    <rect x="466" y="839" width="676" height="1" fill="#262626"/>
    <text x="496" y="876" fill="#BEBEBE" font-size="14" font-family="Inter, Arial, sans-serif">botanical reading nook, lacquered walnut, warm skylight, luxury editorial interior</text>

    <text x="1178" y="122" fill="#7F7F7F" font-size="11" font-family="Inter, Arial, sans-serif" letter-spacing="1.8">DETAILS</text>
    <text x="1178" y="160" fill="#939393" font-size="12" font-family="Inter, Arial, sans-serif">Status</text>
    <text x="1398" y="160" fill="#57D68D" font-size="12" font-family="Inter, Arial, sans-serif" text-anchor="end">done</text>
    <text x="1178" y="188" fill="#939393" font-size="12" font-family="Inter, Arial, sans-serif">Size</text>
    <text x="1398" y="188" fill="#EDEDED" font-size="12" font-family="Inter, Arial, sans-serif" text-anchor="end">896 × 672</text>
    <text x="1178" y="216" fill="#939393" font-size="12" font-family="Inter, Arial, sans-serif">Seed</text>
    <text x="1398" y="216" fill="#EDEDED" font-size="12" font-family="JetBrains Mono, monospace" text-anchor="end">9043312</text>
    <text x="1178" y="244" fill="#939393" font-size="12" font-family="Inter, Arial, sans-serif">Model</text>
    <text x="1398" y="244" fill="#EDEDED" font-size="12" font-family="Inter, Arial, sans-serif" text-anchor="end">flux-klein-9b</text>
    <text x="1178" y="272" fill="#939393" font-size="12" font-family="Inter, Arial, sans-serif">Mode</text>
    <text x="1398" y="272" fill="#EDEDED" font-size="12" font-family="Inter, Arial, sans-serif" text-anchor="end">img2img</text>

    <rect x="1178" y="298" width="78" height="34" rx="10" fill="#232323"/>
    <rect x="1264" y="298" width="96" height="34" rx="10" fill="#232323"/>
    <rect x="1368" y="298" width="32" height="34" rx="10" fill="#232323"/>
    <text x="1205" y="320" fill="#EDEDED" font-size="12" font-family="Inter, Arial, sans-serif">1024</text>
    <text x="1293" y="320" fill="#EDEDED" font-size="12" font-family="Inter, Arial, sans-serif">To Editor</text>
    <text x="1384" y="320" fill="#EDEDED" font-size="16" font-family="Inter, Arial, sans-serif">↓</text>

    <rect x="1150" y="356" width="320" height="1" fill="#262626"/>
    <text x="1178" y="386" fill="#7F7F7F" font-size="11" font-family="Inter, Arial, sans-serif" letter-spacing="1.8">HISTORY</text>

    <rect x="1178" y="408" width="264" height="72" rx="14" fill="#212121"/>
    <rect x="1190" y="420" width="48" height="48" rx="10" fill="url(#refGrad)"/>
    <text x="1250" y="434" fill="#EDEDED" font-size="12" font-family="Inter, Arial, sans-serif">botanical reading nook, lacquered</text>
    <text x="1250" y="452" fill="#989898" font-size="11" font-family="Inter, Arial, sans-serif">img2img · 896×672</text>
    <text x="1388" y="452" fill="#989898" font-size="11" font-family="Inter, Arial, sans-serif" text-anchor="end">21.4s</text>

    <rect x="1178" y="492" width="264" height="72" rx="14" fill="#171717"/>
    <rect x="1190" y="504" width="48" height="48" rx="10" fill="#4D79FF"/>
    <text x="1250" y="518" fill="#EDEDED" font-size="12" font-family="Inter, Arial, sans-serif">editorial portrait, soft diffused</text>
    <text x="1250" y="536" fill="#989898" font-size="11" font-family="Inter, Arial, sans-serif">768×1024</text>
    <text x="1388" y="536" fill="#989898" font-size="11" font-family="Inter, Arial, sans-serif" text-anchor="end">17.8s</text>

    <rect x="1178" y="576" width="264" height="72" rx="14" fill="#171717"/>
    <rect x="1190" y="588" width="48" height="48" rx="10" fill="#72618D"/>
    <text x="1250" y="602" fill="#EDEDED" font-size="12" font-family="Inter, Arial, sans-serif">gallery courtyard with palms and</text>
    <text x="1250" y="620" fill="#989898" font-size="11" font-family="Inter, Arial, sans-serif">multi-ref · 1024×768</text>
    <text x="1388" y="620" fill="#989898" font-size="11" font-family="Inter, Arial, sans-serif" text-anchor="end">24.9s</text>
  </g>
</svg>
